<?xml version="1.0" encoding="utf-8"?>
<!-- Generator: Adobe Illustrator 15.0.0, SVG Export Plug-In . SVG Version: 6.00 Build 0)  -->
<!DOCTYPE svg PUBLIC "-//W3C//DTD SVG 1.1//EN" "http://www.w3.org/Graphics/SVG/1.1/DTD/svg11.dtd">
<svg version="1.1" id="Layer_1" xmlns="http://www.w3.org/2000/svg" xmlns:xlink="http://www.w3.org/1999/xlink" x="0px" y="0px"
	 width="20px" height="20px" viewBox="0 0 20 20" enable-background="new 0 0 20 20" xml:space="preserve">
<g>
	<g>
		<polygon fill="#44B6E5" points="0,7.954 20,7.954 20,6.536 20,6.502 0,6.502 		"/>
		<polygon fill="#44B6E5" points="0,10.966 20,10.966 20,9.549 20,9.512 0,9.512 		"/>
		<polygon fill="#44B6E5" points="0,13.977 20,13.977 20,12.563 20,12.526 0,12.526 		"/>
		<polygon fill="#44B6E5" points="0,16.989 20,16.989 20,15.573 20,15.536 0,15.536 		"/>
		<polygon fill="#44B6E5" points="0,20 20,20 20,18.585 20,18.549 0,18.549 		"/>
	</g>
	<path fill="#E31E2D" d="M12.281,3.434c-1.245-1.416-1.194-1.479-1.38-2.62c-0.02-0.109-0.023-0.2-0.024-0.362
		c0-0.146,0.002-0.291,0-0.472C10.624-0.019,10.279,0,10.098,0c0.014,3.041-0.016,10.146,0,13.431h-0.004l-0.767-2.86l-0.768,2.86
		L5.7,12.664l2.092,2.094L5.7,16.849l2.859-0.767l0.768,2.86l0.767-2.86l2.858,0.767l-2.091-2.091l2.091-2.094
		c0,0-2.066,0.555-2.079,0.559c0.036-0.011-0.002-0.841-0.002-0.884c-0.001-0.734-0.004-1.468-0.006-2.204
		c-0.002-0.883-0.003-1.768-0.006-2.652c-0.002-0.772-0.003-1.544-0.005-2.315c-0.001-0.251-0.002-0.502-0.002-0.753
		c0-0.066-0.039-0.284-0.002-0.341c0.005-0.007,0-0.036,0-0.046c0.918-0.004,1.696,0.739,2.24,1.402
		c0.423,0.513,0.884,1.153,1.058,1.805c0.079,0.29,0.111,0.592,0.118,0.892c0.004,0.15,0.038,0.273-0.045,0.75
		c0.41-0.272,0.39-2.071-0.202-3.113C13.548,4.933,13.321,4.614,12.281,3.434z"/>
</g>
</svg>
