<?xml version="1.0" encoding="utf-8"?>
<!-- Generator: Adobe Illustrator 15.0.0, SVG Export Plug-In . SVG Version: 6.00 Build 0)  -->
<!DOCTYPE svg PUBLIC "-//W3C//DTD SVG 1.1//EN" "http://www.w3.org/Graphics/SVG/1.1/DTD/svg11.dtd">
<svg version="1.1" id="Layer_1" xmlns="http://www.w3.org/2000/svg" xmlns:xlink="http://www.w3.org/1999/xlink" x="0px" y="0px"
	 width="260px" height="260px" viewBox="0 0 260 260" enable-background="new 0 0 260 260" xml:space="preserve">
<g>
	<path fill="#E31E2D" d="M159.939,45.537c-17.045-19.594-16.347-20.473-18.881-36.265c-0.277-1.503-0.336-7.018-0.336-9.271
		c0-0.507,0.032,2.51,0,0c-4.882,0.027-9.449-0.009-10.661,0c0.19,42.082-0.222,138.452,0,183.924h-0.057l-10.497-39.599
		l-10.496,39.599l-39.117-10.632l28.621,28.979l-28.621,28.94l39.117-10.604l10.496,39.583l10.497-39.583l39.111,10.604
		l-28.615-28.94l28.615-28.979c0,0-28.266,7.68-28.444,7.729c0.495-0.141-0.026-11.634-0.026-12.234
		c-0.011-10.158-0.057-20.313-0.081-30.507c-0.024-12.219-0.038-24.467-0.082-36.704c-0.026-10.689-0.044-21.372-0.068-32.047
		c-0.008-3.487-0.026-6.954-0.026-10.433c0-0.911-0.533-3.928-0.026-4.719c0.071-0.102,0-0.5,0-0.634
		c12.56-0.058,23.209,10.232,30.646,19.414c5.8,7.094,12.095,15.96,14.467,24.98c1.094,4.019,1.536,8.204,1.627,12.345
		c0.05,2.086,0.52,3.787-0.61,10.387c5.61-3.762,5.318-28.665-2.78-43.09C177.263,66.286,174.166,61.863,159.939,45.537z"/>
</g>
</svg>
