<?xml version="1.0" standalone="no"?>
<!DOCTYPE svg PUBLIC "-//W3C//DTD SVG 20010904//EN"
 "http://www.w3.org/TR/2001/REC-SVG-20010904/DTD/svg10.dtd">
<svg version="1.0" xmlns="http://www.w3.org/2000/svg"
 width="700.000000pt" height="700.000000pt" viewBox="0 0 700.000000 700.000000"
 preserveAspectRatio="xMidYMid meet">
<metadata>
Created by potrace 1.14, written by Peter Selinger 2001-2017
</metadata>
<g transform="translate(0.000000,700.000000) scale(0.100000,-0.100000)"
fill="#000000" stroke="none">
<path d="M3501 4538 c-1 -1354 -3 -2463 -5 -2465 -2 -2 -26 86 -55 194 -28
109 -85 326 -127 483 -43 157 -79 300 -82 318 -8 58 -21 37 -47 -78 -3 -12
-136 -512 -227 -855 -12 -44 -23 -81 -24 -83 -1 -2 -69 15 -151 37 -181 50
-252 70 -607 166 -153 42 -280 75 -281 73 -2 -2 148 -157 333 -345 186 -188
356 -361 380 -386 l43 -44 -380 -384 c-208 -211 -378 -385 -376 -387 3 -3 43
7 395 103 135 37 252 68 260 70 8 2 98 26 199 54 102 28 185 50 186 48 2 -2
120 -446 258 -972 17 -62 26 -84 30 -70 4 11 27 99 52 195 135 515 223 841
227 845 5 5 27 -1 388 -99 480 -131 646 -176 653 -176 3 0 -164 171 -371 381
-207 209 -379 385 -380 390 -2 5 120 134 271 287 378 382 487 492 487 497 0 2
-17 -3 -37 -10 -32 -12 -278 -80 -323 -90 -8 -1 -99 -26 -201 -54 -103 -28
-189 -51 -193 -51 -3 0 -6 24 -6 53 1 28 -1 587 -4 1242 -5 1303 -8 2080 -7
2108 2 41 185 5 319 -62 163 -83 310 -208 475 -406 273 -327 397 -555 443
-816 18 -100 25 -406 12 -468 -7 -30 -6 -32 8 -20 66 55 101 282 81 529 -17
208 -75 428 -154 585 -74 145 -249 413 -355 542 -18 22 -42 51 -53 65 -11 14
-119 141 -240 283 -426 497 -455 551 -511 945 -11 79 -13 99 -13 193 l-1 97
-144 0 -143 0 -2 -2462z"/>
</g>
</svg>
